<svg version="1.1" id="Layer_1" xmlns="http://www.w3.org/2000/svg" xmlns:xlink="http://www.w3.org/1999/xlink" x="0px" y="0px"
	 width="100%" viewBox="0 0 512 512" enable-background="new 0 0 512 512" xml:space="preserve">
<path fill="#FFFFFF" opacity="1.000000" stroke="none" 
	d="
M202.000000,513.000000 
	C135.056396,513.000000 68.112785,513.000000 1.000000,513.000000 
	C1.000000,406.979156 1.000000,300.958252 1.331596,194.692917 
	C4.860031,222.887314 13.743721,249.402878 29.822992,273.113190 
	C36.303585,282.669403 44.457581,291.090790 51.964184,300.351044 
	C56.918972,305.217712 61.487545,310.100067 66.645363,314.250061 
	C95.072433,337.122559 127.628708,349.870239 163.947388,352.684998 
	C173.484451,353.424133 183.127457,352.796448 193.135300,352.796448 
	C193.135300,341.648438 193.135300,331.333374 193.595428,321.011780 
	C260.403381,321.005310 326.751221,321.005310 394.179779,321.005310 
	C392.269531,323.063019 391.141846,324.406799 389.883148,325.614014 
	C374.176086,340.678619 358.459259,355.733124 342.724243,370.768555 
	C336.481110,376.734161 330.202698,382.663177 323.893402,388.558655 
	C323.206146,389.200836 322.206879,389.509186 321.276062,389.511139 
	C321.199799,372.448120 321.199799,355.846283 321.199799,338.084839 
	C299.299438,345.893829 278.250824,353.399139 257.159424,360.919678 
	C257.159424,369.505585 257.159424,377.787537 257.159424,386.638184 
	C267.796021,383.480865 278.145538,380.408752 289.156097,377.140411 
	C289.156097,392.093903 289.156097,406.057739 289.072174,420.388367 
	C288.862640,421.495026 288.737030,422.234863 288.291473,423.025330 
	C282.463440,428.074463 276.841461,432.953888 271.468018,438.093140 
	C253.380905,455.391998 235.409698,472.811981 217.334946,490.123810 
	C211.014450,496.177490 204.522385,502.052032 198.158615,507.962006 
	C199.698227,509.981201 200.849121,511.490601 202.000000,513.000000 
z"/>
<path fill="#FFFFFF" opacity="1.000000" stroke="none" 
	d="
M194.000000,0.999999 
	C300.246796,1.000000 406.493622,1.000000 513.000000,1.000000 
	C513.000000,73.687355 513.000000,146.375015 512.678467,219.425568 
	C510.970673,217.823380 509.584412,215.858322 508.022308,213.590286 
	C503.565826,211.857544 499.345184,209.464386 494.992310,209.192993 
	C485.080505,208.575027 475.103790,208.998215 465.092957,208.533295 
	C465.020782,197.592407 465.073303,187.115936 464.977966,176.640808 
	C464.896149,167.645218 458.209839,161.233536 448.641327,161.112549 
	C438.384430,162.404922 433.105377,168.252258 433.013947,178.076263 
	C432.917999,188.385620 432.909271,198.695770 432.402405,209.003265 
	C404.733673,208.949432 377.525024,208.897934 350.413452,208.420685 
	C351.282776,201.892899 352.417603,195.811676 352.769531,189.685501 
	C355.450684,143.015198 342.484283,101.265869 312.860291,64.941101 
	C309.011505,60.221764 304.329132,56.182232 299.925995,51.515659 
	C275.976074,27.824856 247.674606,12.612947 215.180740,5.170713 
	C208.169846,3.564970 201.062775,2.379213 194.000000,0.999999 
z"/>
<path fill="#EAECEE" opacity="1.000000" stroke="none" 
	d="
M321.352325,389.972351 
	C322.206879,389.509186 323.206146,389.200836 323.893402,388.558655 
	C330.202698,382.663177 336.481110,376.734161 342.724243,370.768555 
	C358.459259,355.733124 374.176086,340.678619 389.883148,325.614014 
	C391.141846,324.406799 392.269531,323.063019 394.179779,321.005310 
	C326.751221,321.005310 260.403381,321.005310 193.495377,320.813599 
	C192.935196,320.621918 192.827484,320.191162 192.883789,319.713135 
	C192.985443,314.472626 193.030777,309.710083 193.539551,304.969238 
	C265.515472,304.993683 337.027924,304.997437 408.540405,304.992615 
	C410.033752,304.992523 411.527069,304.893219 413.483459,304.907501 
	C446.964325,304.983185 479.982147,304.991608 513.000000,305.000000 
	C513.000000,371.020905 513.000000,437.041779 512.662354,503.572693 
	C509.549805,507.055176 506.774902,510.027588 504.000000,513.000000 
	C403.645782,513.000000 303.291534,513.000000 202.468658,513.000000 
	C200.849121,511.490601 199.698227,509.981201 198.158615,507.962006 
	C204.522385,502.052032 211.014450,496.177490 217.334946,490.123810 
	C235.409698,472.811981 253.380905,455.391998 271.468018,438.093140 
	C276.841461,432.953888 282.463440,428.074463 288.395203,423.485291 
	C288.818909,443.769867 288.818909,463.645111 288.818909,483.500427 
	C300.064026,483.500427 310.466766,483.500427 321.337524,483.500427 
	C321.337524,473.741211 321.365112,464.287811 321.331848,454.834625 
	C321.258148,433.881714 321.153931,412.928894 321.132324,391.643097 
	C321.252472,390.864227 321.302399,390.418274 321.352325,389.972351 
M417.500000,483.819672 
	C431.923370,483.819672 446.346741,483.819672 460.589905,483.819672 
	C460.589905,474.655670 460.589905,466.261108 460.589905,457.463135 
	C442.622467,457.463135 425.057007,457.463135 406.126923,457.463135 
	C415.015991,447.334381 423.381287,438.343872 431.112396,428.837646 
	C438.537201,419.708038 446.689056,410.768555 452.080566,400.467926 
	C464.212769,377.288818 458.030914,344.437897 424.986023,338.321777 
	C404.094055,334.454987 385.080292,337.663788 370.839783,355.152130 
	C363.740326,363.870728 360.395050,374.073120 360.636230,385.625031 
	C371.619690,385.625031 382.060791,385.625031 392.739746,385.625031 
	C393.169037,383.051544 393.533722,380.616547 393.986145,378.197937 
	C395.588196,369.633545 401.705536,363.239319 408.904083,363.047241 
	C420.665985,362.733307 425.750946,371.351746 424.385437,383.621338 
	C423.038910,395.720520 415.101959,404.777771 407.315887,413.466095 
	C393.534546,428.844421 379.450378,443.951294 365.518433,459.195068 
	C364.636627,460.159912 363.342590,461.307037 363.311676,462.399689 
	C363.111603,469.467743 363.209167,476.544250 363.209167,483.819611 
	C381.521301,483.819611 399.010651,483.819611 417.500000,483.819672 
z"/>
<path fill="#79909C" opacity="1.000000" stroke="none" 
	d="
M193.531342,0.999999 
	C201.062775,2.379213 208.169846,3.564970 215.180740,5.170713 
	C247.674606,12.612947 275.976074,27.824856 299.914917,51.878426 
	C298.932373,53.962631 297.980042,55.493992 296.754028,56.760353 
	C291.038116,62.664349 285.246643,68.495117 279.226685,74.281387 
	C278.606628,74.220818 278.242126,74.230949 277.613770,74.029617 
	C274.126770,70.935287 271.059906,67.851830 267.656372,65.200562 
	C233.455154,38.558960 194.884033,27.887810 152.073837,35.338017 
	C114.773880,41.829285 84.395203,60.615421 61.768993,91.032913 
	C39.869331,120.473679 30.414968,153.691803 33.862064,190.407776 
	C36.445576,217.925446 46.045609,242.674133 62.959114,264.549957 
	C66.597885,269.256348 70.381538,273.850677 74.006165,278.849487 
	C67.572662,285.686035 61.259068,292.197266 54.852497,298.615723 
	C54.117535,299.352081 52.863415,299.570221 51.850002,300.028625 
	C44.457581,291.090790 36.303585,282.669403 29.822992,273.113190 
	C13.743721,249.402878 4.860031,222.887314 1.331596,194.224258 
	C1.000000,183.312439 1.000000,172.624878 1.322820,161.227386 
	C4.046703,138.852798 9.498324,118.077423 19.597338,98.641769 
	C45.359638,49.061981 85.421768,17.837675 139.799698,5.021820 
	C146.162338,3.522266 152.598129,2.333072 159.000000,1.000000 
	C170.354233,1.000000 181.708450,1.000000 193.531342,0.999999 
z"/>
<path fill="#FEFEFE" opacity="1.000000" stroke="none" 
	d="
M158.531342,1.000000 
	C152.598129,2.333072 146.162338,3.522266 139.799698,5.021820 
	C85.421768,17.837675 45.359638,49.061981 19.597338,98.641769 
	C9.498324,118.077423 4.046703,138.852798 1.322820,160.758728 
	C1.000000,107.740112 1.000000,54.480232 1.000000,1.000000 
	C53.354023,1.000000 105.708351,1.000000 158.531342,1.000000 
z"/>
<path fill="#FF6E00" opacity="1.000000" stroke="none" 
	d="
M513.000000,304.531342 
	C479.982147,304.991608 446.964325,304.983185 413.641113,304.624939 
	C419.761383,298.132660 426.276489,292.080475 432.585815,285.820892 
	C438.191132,280.259705 443.568146,274.468414 449.351746,268.710510 
	C450.441132,268.456665 451.224701,268.270966 452.419464,268.100769 
	C465.284973,266.714355 475.370636,256.636780 476.078613,244.664246 
	C476.274475,243.896317 476.367432,243.453949 476.771973,242.943954 
	C478.680939,241.459732 480.312653,240.079758 481.870087,238.620514 
	C490.655945,230.388641 499.424011,222.137711 508.198120,213.893250 
	C509.584412,215.858322 510.970673,217.823380 512.678467,219.894226 
	C513.000000,248.020889 513.000000,276.041779 513.000000,304.531342 
z"/>
<path fill="#FEFEFE" opacity="1.000000" stroke="none" 
	d="
M504.491089,513.000000 
	C506.774902,510.027588 509.549805,507.055176 512.662354,504.041382 
	C513.000000,506.917358 513.000000,509.834717 513.000000,513.000000 
	C510.329987,513.000000 507.656067,513.000000 504.491089,513.000000 
z"/>
<path fill="#556F7B" opacity="1.000000" stroke="none" 
	d="
M51.964184,300.351044 
	C52.863415,299.570221 54.117535,299.352081 54.852497,298.615723 
	C61.259068,292.197266 67.572662,285.686035 74.309189,278.997955 
	C75.116920,278.966553 75.529327,279.139526 76.088448,279.600342 
	C79.161125,282.602844 81.965195,285.464478 85.032684,288.008453 
	C106.020706,305.414612 130.090973,316.245300 157.072906,319.600281 
	C168.833755,321.062622 180.899963,320.069244 192.827484,320.191162 
	C192.827484,320.191162 192.935196,320.621918 193.035248,320.820099 
	C193.135300,331.333374 193.135300,341.648438 193.135300,352.796448 
	C183.127457,352.796448 173.484451,353.424133 163.947388,352.684998 
	C127.628708,349.870239 95.072433,337.122559 66.645363,314.250061 
	C61.487545,310.100067 56.918972,305.217712 51.964184,300.351044 
z"/>
<path fill="#455B65" opacity="1.000000" stroke="none" 
	d="
M321.276062,389.511139 
	C321.302399,390.418274 321.252472,390.864227 320.825104,391.783630 
	C312.072510,400.224823 303.751740,408.251129 295.277374,416.111877 
	C293.530853,417.731934 291.211456,418.734436 289.156097,420.021576 
	C289.156097,406.057739 289.156097,392.093903 289.156097,377.140411 
	C278.145538,380.408752 267.796021,383.480865 257.159424,386.638184 
	C257.159424,377.787537 257.159424,369.505585 257.159424,360.919678 
	C278.250824,353.399139 299.299438,345.893829 321.199799,338.084839 
	C321.199799,355.846283 321.199799,372.448120 321.276062,389.511139 
z"/>
<path fill="#37474F" opacity="1.000000" stroke="none" 
	d="
M289.072174,420.388367 
	C291.211456,418.734436 293.530853,417.731934 295.277374,416.111877 
	C303.751740,408.251129 312.072510,400.224823 320.754913,392.116577 
	C321.153931,412.928894 321.258148,433.881714 321.331848,454.834625 
	C321.365112,464.287811 321.337524,473.741211 321.337524,483.500427 
	C310.466766,483.500427 300.064026,483.500427 288.818909,483.500427 
	C288.818909,463.645111 288.818909,443.769867 288.715179,423.434692 
	C288.737030,422.234863 288.862640,421.495026 289.072174,420.388367 
z"/>
<path fill="#FF8D00" opacity="1.000000" stroke="none" 
	d="
M449.045929,268.778687 
	C443.568146,274.468414 438.191132,280.259705 432.585815,285.820892 
	C426.276489,292.080475 419.761383,298.132660 413.178101,304.557617 
	C411.527069,304.893219 410.033752,304.992523 408.540405,304.992615 
	C337.027924,304.997437 265.515472,304.993683 193.491943,304.725891 
	C192.980881,304.460846 192.834747,303.987854 192.902496,303.524109 
	C192.980759,277.564606 192.943314,252.068680 193.024261,226.573135 
	C193.058884,215.666382 199.629044,209.089218 210.413422,209.018753 
	C220.577682,208.952347 230.742889,209.029831 240.945679,209.499573 
	C240.947479,213.015671 240.911255,216.076233 240.577637,219.253479 
	C238.948166,220.615021 237.505783,221.762054 236.301346,223.120117 
	C226.154037,234.561508 227.718155,252.420471 239.683655,262.224213 
	C251.786011,272.140076 269.486053,269.970947 279.006683,257.405182 
	C288.192078,245.281860 285.514709,227.959991 273.053894,218.625168 
	C273.058502,215.118057 273.092651,212.068558 273.587463,209.011307 
	C283.027527,208.947220 292.006958,208.890884 301.450592,208.900848 
	C307.235046,208.922379 312.555267,208.877594 318.347839,208.899261 
	C329.318878,208.925964 339.817596,208.886200 350.316345,208.846436 
	C377.525024,208.897934 404.733673,208.949432 432.458588,209.459167 
	C432.941528,212.990952 432.908264,216.064484 432.578491,219.253952 
	C417.687775,231.613586 417.923401,252.891479 433.330383,263.275421 
	C437.782806,266.276215 443.765045,267.007141 449.045929,268.778687 
z"/>
<path fill="#556F7B" opacity="1.000000" stroke="none" 
	d="
M350.413452,208.420685 
	C339.817596,208.886200 329.318878,208.925964 318.384430,208.490417 
	C320.991028,191.958557 322.090820,175.852371 320.051270,159.539719 
	C316.959869,134.814072 308.224426,112.360229 293.579681,92.243401 
	C289.114258,86.109451 284.194092,80.306580 279.482178,74.352081 
	C285.246643,68.495117 291.038116,62.664349 296.754028,56.760353 
	C297.980042,55.493992 298.932373,53.962631 300.021851,52.190582 
	C304.329132,56.182232 309.011505,60.221764 312.860291,64.941101 
	C342.484283,101.265869 355.450684,143.015198 352.769531,189.685501 
	C352.417603,195.811676 351.282776,201.892899 350.413452,208.420685 
z"/>
<path fill="#788F9B" opacity="1.000000" stroke="none" 
	d="
M449.037628,161.161636 
	C458.209839,161.233536 464.896149,167.645218 464.977966,176.640808 
	C465.073303,187.115936 465.020782,197.592407 465.029938,208.986618 
	C465.045532,212.965485 465.063599,216.026047 465.055725,219.545837 
	C465.019073,227.165283 465.039246,234.325729 464.989716,241.485672 
	C464.928650,250.313553 457.892303,257.037537 448.968048,256.413147 
	C449.001587,224.355652 449.019592,192.758636 449.037628,161.161636 
z"/>
<path fill="#8FA3AD" opacity="1.000000" stroke="none" 
	d="
M448.641327,161.112549 
	C449.019592,192.758636 449.001587,224.355652 448.576782,256.449738 
	C438.324921,255.536530 433.119781,249.738602 433.012421,239.993423 
	C432.935822,233.041962 432.918671,226.089859 432.875000,219.138031 
	C432.908264,216.064484 432.941528,212.990952 432.918640,209.461487 
	C432.909271,198.695770 432.917999,188.385620 433.013947,178.076263 
	C433.105377,168.252258 438.384430,162.404922 448.641327,161.112549 
z"/>
<path fill="#FE8D01" opacity="1.000000" stroke="none" 
	d="
M465.081635,219.086594 
	C465.063599,216.026047 465.045532,212.965485 465.090454,209.451630 
	C475.103790,208.998215 485.080505,208.575027 494.992310,209.192993 
	C499.345184,209.464386 503.565826,211.857544 508.022308,213.590302 
	C499.424011,222.137711 490.655945,230.388641 481.870087,238.620514 
	C480.312653,240.079758 478.680939,241.459732 476.702698,242.498871 
	C476.390717,232.581284 473.191162,224.635986 465.081635,219.086594 
z"/>
<path fill="#384850" opacity="1.000000" stroke="none" 
	d="
M417.000000,483.819641 
	C399.010651,483.819611 381.521301,483.819611 363.209167,483.819611 
	C363.209167,476.544250 363.111603,469.467743 363.311676,462.399689 
	C363.342590,461.307037 364.636627,460.159912 365.518433,459.195068 
	C379.450378,443.951294 393.534546,428.844421 407.315887,413.466095 
	C415.101959,404.777771 423.038910,395.720520 424.385437,383.621338 
	C425.750946,371.351746 420.665985,362.733307 408.904083,363.047241 
	C401.705536,363.239319 395.588196,369.633545 393.986145,378.197937 
	C393.533722,380.616547 393.169037,383.051544 392.739746,385.625031 
	C382.060791,385.625031 371.619690,385.625031 360.636230,385.625031 
	C360.395050,374.073120 363.740326,363.870728 370.839783,355.152130 
	C385.080292,337.663788 404.094055,334.454987 424.986023,338.321777 
	C458.030914,344.437897 464.212769,377.288818 452.080566,400.467926 
	C446.689056,410.768555 438.537201,419.708038 431.112396,428.837646 
	C423.381287,438.343872 415.015991,447.334381 406.126923,457.463135 
	C425.057007,457.463135 442.622467,457.463135 460.589905,457.463135 
	C460.589905,466.261108 460.589905,474.655670 460.589905,483.819672 
	C446.346741,483.819672 431.923370,483.819672 417.000000,483.819641 
z"/>
<path fill="#AFBDC3" opacity="1.000000" stroke="none" 
	d="
M192.834747,303.987854 
	C192.834747,303.987854 192.980881,304.460846 193.028503,304.704224 
	C193.030777,309.710083 192.985443,314.472626 192.883789,319.713135 
	C180.899963,320.069244 168.833755,321.062622 157.072906,319.600281 
	C130.090973,316.245300 106.020706,305.414612 85.032684,288.008453 
	C81.965195,285.464478 79.161125,282.602844 76.129807,279.233643 
	C79.536591,274.936523 83.048737,271.293945 86.137543,268.090454 
	C94.153091,274.151917 101.110817,280.065857 108.694130,285.022736 
	C129.378815,298.543488 152.398254,304.618439 176.976364,304.940643 
	C182.257431,305.009857 187.548355,304.325226 192.834747,303.987854 
z"/>
<path fill="#CDD7DB" opacity="1.000000" stroke="none" 
	d="
M192.902496,303.524109 
	C187.548355,304.325226 182.257431,305.009857 176.976364,304.940643 
	C152.398254,304.618439 129.378815,298.543488 108.694130,285.022736 
	C101.110817,280.065857 94.153091,274.151917 86.137543,268.090454 
	C83.048737,271.293945 79.536591,274.936523 75.983093,278.945801 
	C75.529327,279.139526 75.116920,278.966553 74.401482,278.645111 
	C70.381538,273.850677 66.597885,269.256348 62.959114,264.549957 
	C46.045609,242.674133 36.445576,217.925446 33.862064,190.407776 
	C30.414968,153.691803 39.869331,120.473679 61.768993,91.032913 
	C84.395203,60.615421 114.773880,41.829285 152.073837,35.338017 
	C194.884033,27.887810 233.455154,38.558960 267.656372,65.200562 
	C271.059906,67.851830 274.126770,70.935287 277.641541,74.369377 
	C274.710632,78.981430 271.488098,83.042244 268.553833,86.739822 
	C274.127563,94.113266 280.044830,101.063385 284.987518,108.648582 
	C298.467773,129.335800 305.074982,152.308853 304.795227,176.904358 
	C304.674072,187.560822 302.324036,198.191910 300.986389,208.834534 
	C292.006958,208.890884 283.027527,208.947220 273.539185,208.544739 
	C273.019348,197.788727 273.062805,187.491119 272.981506,177.194473 
	C272.906708,167.725876 266.566101,161.397552 256.649902,161.088486 
	C246.353363,162.338608 241.065582,168.208267 241.008591,178.049225 
	C240.948761,188.380676 240.939209,198.712402 240.907684,209.044006 
	C230.742889,209.029831 220.577682,208.952347 210.413422,209.018753 
	C199.629044,209.089218 193.058884,215.666382 193.024261,226.573135 
	C192.943314,252.068680 192.980759,277.564606 192.902496,303.524109 
M161.057785,195.100235 
	C169.354919,201.867661 178.510254,203.161819 188.012802,198.370697 
	C197.630905,193.521332 201.464355,185.193680 201.089310,174.510559 
	C201.010117,172.254791 202.232025,169.369492 203.833130,167.730103 
	C217.796188,153.433136 231.993607,139.365250 246.096176,125.204208 
	C251.877640,119.398766 251.682877,115.171341 245.258423,109.217896 
	C245.178619,109.059425 245.098816,108.900948 245.363724,108.205017 
	C252.629608,101.162560 259.895508,94.120102 268.193207,86.077568 
	C259.572815,79.613304 252.295807,73.279366 244.206711,68.252190 
	C218.159363,52.064423 189.644394,46.178455 159.306213,50.221199 
	C139.611008,52.845707 121.425430,60.060253 104.945358,71.174538 
	C100.841202,73.942413 97.538933,77.899307 93.666252,81.242821 
	C93.666252,81.242821 93.580917,81.048073 93.005066,81.157524 
	C92.691895,81.378281 92.378723,81.599037 91.527710,82.252182 
	C88.209656,85.858818 84.891602,89.465446 80.857727,93.219391 
	C79.075722,95.148148 77.116409,96.942665 75.538971,99.026299 
	C58.682003,121.292557 49.762115,146.447449 49.069202,174.327957 
	C48.491699,197.564850 54.122940,219.453903 65.449844,239.735245 
	C71.028656,249.724350 77.413628,259.229462 87.230659,267.273865 
	C111.434212,242.802322 135.561417,218.407974 160.171112,194.316315 
	C160.338150,194.406158 160.505173,194.496002 161.057785,195.100235 
z"/>
<path fill="#AFBDC3" opacity="1.000000" stroke="none" 
	d="
M301.450592,208.900848 
	C302.324036,198.191910 304.674072,187.560822 304.795227,176.904358 
	C305.074982,152.308853 298.467773,129.335800 284.987518,108.648582 
	C280.044830,101.063385 274.127563,94.113266 268.553833,86.739822 
	C271.488098,83.042244 274.710632,78.981430 277.905365,74.580849 
	C278.242126,74.230949 278.606628,74.220818 279.226685,74.281387 
	C284.194092,80.306580 289.114258,86.109451 293.579681,92.243401 
	C308.224426,112.360229 316.959869,134.814072 320.051270,159.539719 
	C322.090820,175.852371 320.991028,191.958557 317.912109,208.423950 
	C312.555267,208.877594 307.235046,208.922379 301.450592,208.900848 
z"/>
<path fill="#465B63" opacity="1.000000" stroke="none" 
	d="
M465.055725,219.545837 
	C473.191162,224.635986 476.390717,232.581284 476.391113,242.566528 
	C476.367432,243.453949 476.274475,243.896317 475.779358,244.813293 
	C467.587555,252.887039 459.797882,260.486176 452.008240,268.085297 
	C451.224701,268.270966 450.441132,268.456665 449.351746,268.710510 
	C443.765045,267.007141 437.782806,266.276215 433.330383,263.275421 
	C417.923401,252.891479 417.687775,231.613586 432.578491,219.253952 
	C432.918671,226.089859 432.935822,233.041962 433.012421,239.993423 
	C433.119781,249.738602 438.324921,255.536530 448.561279,256.910217 
	C457.892303,257.037537 464.928650,250.313553 464.989716,241.485672 
	C465.039246,234.325729 465.019073,227.165283 465.055725,219.545837 
z"/>
<path fill="#3D484D" opacity="1.000000" stroke="none" 
	d="
M452.419464,268.100769 
	C459.797882,260.486176 467.587555,252.887039 475.676453,245.138870 
	C475.370636,256.636780 465.284973,266.714355 452.419464,268.100769 
z"/>
<path fill="#788F9B" opacity="1.000000" stroke="none" 
	d="
M257.050537,161.127182 
	C266.566101,161.397552 272.906708,167.725876 272.981506,177.194473 
	C273.062805,187.491119 273.019348,197.788727 273.078552,208.552490 
	C273.092651,212.068558 273.058502,215.118057 273.026978,219.083817 
	C273.018890,227.160980 273.039062,234.322083 272.989594,241.482712 
	C272.928619,250.312714 265.894684,257.035980 256.968201,256.413574 
	C257.006042,224.344421 257.028290,192.735809 257.050537,161.127182 
z"/>
<path fill="#8FA3AD" opacity="1.000000" stroke="none" 
	d="
M256.649902,161.088486 
	C257.028290,192.735809 257.006042,224.344421 256.578430,256.450043 
	C246.549591,255.573013 241.113937,249.507599 241.011993,239.966263 
	C240.937790,233.023407 240.918701,226.079956 240.875031,219.136780 
	C240.911255,216.076233 240.947479,213.015671 240.945694,209.499573 
	C240.939209,198.712402 240.948761,188.380676 241.008591,178.049225 
	C241.065582,168.208267 246.353363,162.338608 256.649902,161.088486 
z"/>
<path fill="#475B63" opacity="1.000000" stroke="none" 
	d="
M240.577652,219.253479 
	C240.918701,226.079956 240.937790,233.023407 241.011993,239.966263 
	C241.113937,249.507599 246.549591,255.573013 256.562866,256.910553 
	C265.894684,257.035980 272.928619,250.312714 272.989594,241.482712 
	C273.039062,234.322083 273.018890,227.160980 273.056488,219.541428 
	C285.514709,227.959991 288.192078,245.281860 279.006683,257.405182 
	C269.486053,269.970947 251.786011,272.140076 239.683655,262.224213 
	C227.718155,252.420471 226.154037,234.561508 236.301346,223.120117 
	C237.505783,221.762054 238.948166,220.615021 240.577652,219.253479 
z"/>
<path fill="#EBEDEE" opacity="1.000000" stroke="none" 
	d="
M159.688629,194.013611 
	C135.561417,218.407974 111.434212,242.802322 87.230659,267.273865 
	C77.413628,259.229462 71.028656,249.724350 65.449844,239.735245 
	C54.122940,219.453903 48.491699,197.564850 49.069202,174.327957 
	C49.762115,146.447449 58.682003,121.292557 75.538971,99.026299 
	C77.116409,96.942665 79.075722,95.148148 81.193634,93.518669 
	C83.084633,96.958122 83.965553,100.761375 86.300056,103.134972 
	C107.513008,124.703064 129.001602,145.999847 150.321228,167.463730 
	C151.703735,168.855606 153.374939,171.093826 153.178268,172.729950 
	C152.196472,180.897278 154.835388,187.742859 159.688629,194.013611 
z"/>
<path fill="#EBECEE" opacity="1.000000" stroke="none" 
	d="
M93.868088,81.309692 
	C97.538933,77.899307 100.841202,73.942413 104.945358,71.174538 
	C121.425430,60.060253 139.611008,52.845707 159.306213,50.221199 
	C189.644394,46.178455 218.159363,52.064423 244.206711,68.252190 
	C252.295807,73.279366 259.572815,79.613304 268.193207,86.077568 
	C259.895508,94.120102 252.629608,101.162560 244.877029,108.376320 
	C237.459061,102.325874 234.694595,102.401634 228.045273,109.044106 
	C216.161926,120.915176 204.207367,132.716644 192.450058,144.711380 
	C187.475784,149.786102 183.174637,155.072113 174.582336,153.420914 
	C171.731659,152.873093 169.500107,152.617630 167.402298,150.509888 
	C146.052231,129.058838 124.700607,107.607941 103.135666,86.374084 
	C100.723206,83.998665 96.989227,82.965378 93.868088,81.309692 
z"/>
<path fill="#FF8D01" opacity="1.000000" stroke="none" 
	d="
M93.767166,81.276260 
	C96.989227,82.965378 100.723206,83.998665 103.135666,86.374084 
	C124.700607,107.607941 146.052231,129.058838 167.402298,150.509888 
	C169.500107,152.617630 171.731659,152.873093 174.582336,153.420914 
	C183.174637,155.072113 187.475784,149.786102 192.450058,144.711380 
	C204.207367,132.716644 216.161926,120.915176 228.045273,109.044106 
	C234.694595,102.401634 237.459061,102.325874 244.704666,108.645050 
	C245.098816,108.900948 245.178619,109.059425 245.031723,109.622963 
	C226.709793,128.006790 208.621994,145.993057 190.505783,163.950653 
	C188.990616,165.452545 187.284119,166.761429 185.482758,168.170563 
	C185.298981,168.181137 184.931625,168.205505 184.700134,167.927582 
	C177.857193,163.777100 172.157562,164.305405 167.960510,169.179825 
	C163.986191,173.795563 164.081909,179.389267 168.211060,185.107391 
	C168.192291,185.295258 168.165192,185.671860 168.018463,185.996384 
	C165.471878,189.075882 163.072052,191.830856 160.672211,194.585846 
	C160.505173,194.496002 160.338150,194.406158 159.929871,194.164978 
	C154.835388,187.742859 152.196472,180.897278 153.178268,172.729950 
	C153.374939,171.093826 151.703735,168.855606 150.321228,167.463730 
	C129.001602,145.999847 107.513008,124.703064 86.300056,103.134972 
	C83.965553,100.761375 83.084633,96.958122 81.551544,93.445007 
	C84.891602,89.465446 88.209656,85.858818 92.108864,82.027008 
	C92.986984,81.550575 93.283951,81.299324 93.580917,81.048073 
	C93.580917,81.048073 93.666252,81.242821 93.767166,81.276260 
z"/>
<path fill="#FE7003" opacity="1.000000" stroke="none" 
	d="
M160.865005,194.843048 
	C163.072052,191.830856 165.471878,189.075882 168.345856,186.161057 
	C171.042557,186.996216 173.185333,188.532715 175.504166,188.874466 
	C180.462875,189.605286 184.612030,187.849838 187.278992,183.323715 
	C190.494247,177.867096 189.250443,172.890549 185.666519,168.159973 
	C187.284119,166.761429 188.990616,165.452545 190.505783,163.950653 
	C208.621994,145.993057 226.709793,128.006790 245.145721,109.863464 
	C251.682877,115.171341 251.877640,119.398766 246.096176,125.204208 
	C231.993607,139.365250 217.796188,153.433136 203.833130,167.730103 
	C202.232025,169.369492 201.010117,172.254791 201.089310,174.510559 
	C201.464355,185.193680 197.630905,193.521332 188.012802,198.370697 
	C178.510254,203.161819 169.354919,201.867661 160.865005,194.843048 
z"/>
<path fill="#EBECEE" opacity="1.000000" stroke="none" 
	d="
M93.292992,81.102798 
	C93.283951,81.299324 92.986984,81.550575 92.377785,81.810806 
	C92.378723,81.599037 92.691895,81.378281 93.292992,81.102798 
z"/>
<path fill="#ECEBEA" opacity="1.000000" stroke="none" 
	d="
M185.482758,168.170563 
	C189.250443,172.890549 190.494247,177.867096 187.278992,183.323715 
	C184.612030,187.849838 180.462875,189.605286 175.504166,188.874466 
	C173.185333,188.532715 171.042557,186.996216 168.492584,185.836533 
	C168.165192,185.671860 168.192291,185.295258 168.487396,184.951019 
	C174.165527,179.139679 179.548584,173.672592 184.931625,168.205505 
	C184.931625,168.205505 185.298981,168.181137 185.482758,168.170563 
z"/>
<path fill="#F9F7F4" opacity="1.000000" stroke="none" 
	d="
M184.700134,167.927582 
	C179.548584,173.672592 174.165527,179.139679 168.506165,184.763153 
	C164.081909,179.389267 163.986191,173.795563 167.960510,169.179825 
	C172.157562,164.305405 177.857193,163.777100 184.700134,167.927582 
z"/>
</svg>